<svg id="Layer_1" data-name="Layer 1" xmlns="http://www.w3.org/2000/svg" viewBox="0 0 288 288"><defs><style>.cls-1{fill:#bbce00;}</style></defs><title>Icons</title><path class="cls-1" d="M57.88,67.08a5,5,0,0,1-3.77-8.28,120,120,0,0,1,82.7-41.12c49.75-3,82.88,26.91,89,32.94a5,5,0,1,1-7,7.13c-5.61-5.51-35.88-32.85-81.36-30.09A110,110,0,0,0,61.65,65.37,5,5,0,0,1,57.88,67.08Z"/><path class="cls-1" d="M50.27,114.16A5,5,0,0,1,46,106.59c8.34-13.92,39.52-59.68,90.45-64,52.7-4.48,88.05,38.15,97.62,51.33A5,5,0,0,1,226,99.79c-8.8-12.11-41.21-51.29-88.68-47.25-46.2,3.93-75,46.3-82.73,59.19A5,5,0,0,1,50.27,114.16Z"/><path class="cls-1" d="M227.78,223.34a5,5,0,0,1-3.28-1.22,61.43,61.43,0,0,1-19.24-31l0-.14c-2.78-12.07-.12-20.59,2.45-28.83,1.94-6.23,3.95-12.67,3.82-21.29a68.55,68.55,0,0,0-29-53.12C180.06,86,157.32,71.18,129.14,78c-3.91.94-24,6.44-37,23.32a73.9,73.9,0,0,0-6,9.35,99.92,99.92,0,0,1-11.42,16.72,117.35,117.35,0,0,1-19.6,18.46,5,5,0,1,1-6-8,108.31,108.31,0,0,0,17.94-16.89,90.62,90.62,0,0,0,10.38-15.23,83.68,83.68,0,0,1,6.75-10.51c14.64-19,36.28-25.43,42.56-26.93,32.39-7.8,58.54,9.28,61.41,11.26a78.56,78.56,0,0,1,33.28,61v.11c.18,10.27-2.18,17.83-4.26,24.5-2.47,7.9-4.42,14.14-2.27,23.54a51.45,51.45,0,0,0,16.1,25.93,5,5,0,0,1-3.28,8.77Z"/><path class="cls-1" d="M213.81,241.29a5,5,0,0,1-2.66-.77,69.08,69.08,0,0,1-23.85-25.41c-9.79-18.79-6.66-36.69-3.9-52.49,2.66-15.22,5-28.35-3-41a47.18,47.18,0,0,0-36.12-20.51,47.67,47.67,0,0,0-29.45,9.38c-7.91,5.7-11.14,11.54-15.62,19.61a166.54,166.54,0,0,1-10.31,16.81,143.79,143.79,0,0,1-34.59,34.23,5,5,0,0,1-5.73-8.2,133.66,133.66,0,0,0,32.18-31.84,157.79,157.79,0,0,0,9.71-15.84c4.71-8.52,8.79-15.87,18.45-22.83a57.65,57.65,0,0,1,35.69-11.32h.15a57.22,57.22,0,0,1,44,25l.08.11c10.1,15.9,7.24,32.27,4.47,48.11-2.73,15.62-5.31,30.37,2.87,46.07a59,59,0,0,0,20.36,21.64,5,5,0,0,1-2.67,9.24Z"/><path class="cls-1" d="M83.31,256.37a5,5,0,0,1-2.84-9.12c36-24.74,61.67-51.17,76.44-78.56,9.57-17.72,8.47-25.07,6.36-29.46a23.15,23.15,0,0,0-22.7-11.61c-10,1.37-16.44,11.36-23.24,21.94-1.19,1.85-2.38,3.7-3.59,5.52-15.12,22.52-36,42.56-62.21,59.56a5,5,0,1,1-5.45-8.38c25-16.26,45-35.36,59.35-56.75,1.18-1.76,2.33-3.56,3.49-5.36,7.75-12,15.75-24.49,30.37-26.45h.11a33.1,33.1,0,0,1,32.67,16.78l.13.25c4.8,9.82,2.86,21.4-6.49,38.72-15.53,28.79-42.3,56.4-79.57,82.05A5,5,0,0,1,83.31,256.37Z"/><path class="cls-1" d="M58.18,241.35a5,5,0,0,1-2.78-9.17,299.43,299.43,0,0,0,56.83-49.09,299.32,299.32,0,0,0,28-36.64,5,5,0,0,1,8.39,5.44,309.61,309.61,0,0,1-29,37.89,309.65,309.65,0,0,1-58.73,50.73A4.94,4.94,0,0,1,58.18,241.35Z"/><path class="cls-1" d="M233.41,197.83a5,5,0,0,1-4.74-6.6,104.69,104.69,0,0,0-3.23-75.56,5,5,0,0,1,9.16-4,114.59,114.59,0,0,1,3.54,82.76A5,5,0,0,1,233.41,197.83Z"/><path class="cls-1" d="M183.46,260.5a4.89,4.89,0,0,1-2.35-.6A48.29,48.29,0,0,1,157.66,231l0-.12a47.23,47.23,0,0,1,2.11-30.23,5,5,0,1,1,9.22,3.87,37.19,37.19,0,0,0-1.68,23.74,38.25,38.25,0,0,0,18.55,22.83,5,5,0,0,1-2.37,9.41Z"/><path class="cls-1" d="M153.86,270.54a5,5,0,0,1-4.9-4c-2.17-10.68-7.49-18.93-12.64-19.61-3-.4-6.55,1.67-13,5.68l-.56.36a66.17,66.17,0,0,0-12.22,9.78,5,5,0,1,1-7.12-7,76.5,76.5,0,0,1,14-11.25l.58-.36c7.19-4.47,12.87-8,19.61-7.1,9.83,1.3,17.93,11.84,21.12,27.52a5,5,0,0,1-3.9,5.9A4.92,4.92,0,0,1,153.86,270.54Z"/></svg>