<svg id="Layer_1" data-name="Layer 1" xmlns="http://www.w3.org/2000/svg" viewBox="0 0 288 288"><defs><style>.cls-1{fill:#bbce00;}</style></defs><title>Icons</title><path class="cls-1" d="M255.62,40.61H46.94A10.33,10.33,0,0,0,36.63,50.92v61.93H32.38a10.32,10.32,0,0,0-10.31,10.31V237.08a10.32,10.32,0,0,0,10.31,10.31H85.9a10.33,10.33,0,0,0,10.31-10.31V204.61h35.46L130,223c-.07,1.08-1.25,10.54-19.16,10.54a4.42,4.42,0,0,0,0,8.84h81a4.42,4.42,0,1,0,0-8.84c-17.9,0-19.08-9.46-19.17-10.73l-1.7-18.24h84.73a10.32,10.32,0,0,0,10.31-10.32V50.92A10.32,10.32,0,0,0,255.62,40.61ZM87.37,237.08a1.47,1.47,0,0,1-1.47,1.47H32.37a1.47,1.47,0,0,1-1.47-1.47V123.16a1.47,1.47,0,0,1,1.47-1.48H85.9a1.47,1.47,0,0,1,1.47,1.48Zm47.12-3.5a18.65,18.65,0,0,0,4.29-9.9l1.77-19.07H162l1.76,18.8a18.84,18.84,0,0,0,4.33,10.17ZM257.1,194.29a1.49,1.49,0,0,1-1.48,1.48H96.21V178.28H257.1Zm0-24.85H96.21V123.16A10.32,10.32,0,0,0,85.9,112.85H45.47V50.92a1.47,1.47,0,0,1,1.47-1.47H255.62a1.48,1.48,0,0,1,1.48,1.47Z"/></svg>