<svg id="Layer_1" data-name="Layer 1" xmlns="http://www.w3.org/2000/svg" viewBox="0 0 288 288"><defs><style>.cls-1{fill:#bbce00;}</style></defs><title>Icons</title><path class="cls-1" d="M258,247.55H30.6A24.8,24.8,0,0,1,5.83,222.77V65.23A24.81,24.81,0,0,1,30.6,40.45H257.4a24.8,24.8,0,0,1,24.77,24.78V222.77C282.17,236.11,271.37,247.55,258,247.55ZM30.6,49.34A15.73,15.73,0,0,0,14.72,65.23V222.77A15.73,15.73,0,0,0,30.6,238.66H257.4a15.73,15.73,0,0,0,15.88-15.89V65.23A15.73,15.73,0,0,0,257.4,49.34Z"/><path class="cls-1" d="M257.4,247.55H31.24A25.49,25.49,0,0,1,5.83,222.14a4.34,4.34,0,0,1,4.44-4.45c2.55,0,4.45,1.91,4.45,3.81,0,9.53,7.62,17.16,16.52,17.16H256.76a16.82,16.82,0,0,0,16.52-16.52,4.34,4.34,0,0,1,4.45-4.45c2.54,0,4.44,1.91,4.44,3.81v.64C282.17,236.11,270.74,247.55,257.4,247.55Z"/><path class="cls-1" d="M27.43,57a4.33,4.33,0,0,0,4.44,4.44H41.4a4.45,4.45,0,1,0,0-8.89H31.87A4.34,4.34,0,0,0,27.43,57Z"/><path class="cls-1" d="M212.29,57a4.34,4.34,0,0,0,4.45,4.44H226.9a4.45,4.45,0,1,0,0-8.89h-9.53c-2.54,0-5.08,1.91-5.08,4.45Z"/><path class="cls-1" d="M240.24,57a4.34,4.34,0,0,0,4.45,4.44h9.53a4.45,4.45,0,1,0,0-8.89h-9.53A4.35,4.35,0,0,0,240.24,57Z"/><path class="cls-1" d="M10.27,70.31a4.35,4.35,0,0,0,4.45,4.45H273.91a4.45,4.45,0,0,0,0-8.9H14.72a4.35,4.35,0,0,0-4.45,4.45Z"/><path class="cls-1" d="M122.08,161.15h10.17v34.94c0,7,5.71,12.71,12.07,12.71h15.24v-8.26l-15.24.63c-2.54,0-3.81-1.9-3.81-4.44v-75.6c0-2.54,1.9-4.45,3.81-4.45h13.34v-7.62h-14a12.06,12.06,0,0,0-12.07,12.07v33h-9.53Z"/><path class="cls-1" d="M115.73,188.47h-75C35.05,188.47,30,184,30,178.3V135.11a10,10,0,0,1,10.16-10.17h75a10,10,0,0,1,10.16,10.17V178.3C125.89,184,121.45,188.47,115.73,188.47Zm-75-55.9a2,2,0,0,0-1.91,1.9v43.2a2,2,0,0,0,1.91,1.91h75a2,2,0,0,0,1.91-1.91v-43.2a2,2,0,0,0-1.91-1.9Z"/><path class="cls-1" d="M247.23,124.94H162.74c-5.72,0-10.16-4.45-10.16-9.53V96.35c0-5.08,4.44-9.52,10.16-9.52h84.49c5.72,0,10.17,4.44,10.17,9.52v19.06C257.4,120.49,253,124.94,247.23,124.94ZM162.74,94.45a1.68,1.68,0,0,0-1.91,1.9v19.06a2,2,0,0,0,1.91,1.91h84.49a1.69,1.69,0,0,0,1.91-1.91V96.35a2,2,0,0,0-1.91-1.9Z"/><path class="cls-1" d="M248.5,226.59H164c-5.72,0-10.16-4.45-10.16-9.53V198c0-5.08,4.44-9.53,10.16-9.53H248.5c5.72,0,10.17,4.45,10.17,9.53v19.06C258.67,222.77,254.22,226.59,248.5,226.59ZM164,196.09a1.68,1.68,0,0,0-1.9,1.91v19.06A2,2,0,0,0,164,219H248.5a1.68,1.68,0,0,0,1.91-1.9V198a2,2,0,0,0-1.91-1.91Z"/><path class="cls-1" d="M247.23,175.76H162.74a10,10,0,0,1-10.16-10.16V146.54a10,10,0,0,1,10.16-10.16h84.49a10,10,0,0,1,10.17,10.16V165.6A10,10,0,0,1,247.23,175.76Zm-84.49-31.12a1.68,1.68,0,0,0-1.91,1.9V165.6a2,2,0,0,0,1.91,1.91h84.49a1.69,1.69,0,0,0,1.91-1.91V146.54a2,2,0,0,0-1.91-1.9Z"/><line class="cls-1" x1="136.69" y1="157.98" x2="154.48" y2="157.34"/><path class="cls-1" d="M136.69,162a4,4,0,0,1-.14-8l17.79-.64h.14a4,4,0,0,1,.14,8l-17.78.63Z"/></svg>