<svg id="Layer_1" data-name="Layer 1" xmlns="http://www.w3.org/2000/svg" viewBox="0 0 288 288"><defs><style>.cls-1{fill:#bbce00;}</style></defs><title>Icons</title><path class="cls-1" d="M130,250.53h-4.29l-.62-.32a18.76,18.76,0,0,1-9.92-4.64l-1.84-1.71c-3.68-3.43-7.51-7-11.1-10.73s-8-8.52-13.14-14.12a50.53,50.53,0,0,1-8.34-11.8,24.83,24.83,0,0,1-2.28-6.86,1.5,1.5,0,0,0,0-.3h0l-.37-.21-.4-.22h-.19a4.23,4.23,0,0,1-5-.4c-1.29-.94-2.68-1.85-3.92-2.68l-2.68-1.82c-.45-.32-.91-.7-1.34-1.07a5.63,5.63,0,0,0-1.31-1,21.23,21.23,0,0,1-10.54-7.75,88,88,0,0,0-9.81-10.88A26,26,0,0,1,40.24,171l-1-1.23-.48-.62a2.69,2.69,0,0,0-.3-.37l-5.36-4c-3.46-2.68-7-5.2-10.48-8A36,36,0,0,1,13.32,146a15.5,15.5,0,0,1-2.65-9.25,83.41,83.41,0,0,0,0-17.59,20.18,20.18,0,0,0-.4-2.17,6.48,6.48,0,0,0-.27-1.2v-5.88l.59-.37a21.78,21.78,0,0,1,8.47-10.4A60.4,60.4,0,0,1,38.9,90l5.36-1.44.64-.19c.43-2.33,1.53-3.11,4.59-3.86l5.17-1.26c.22-.54.4-1,.59-1.56a11.56,11.56,0,0,1,3.57-11.28A24.92,24.92,0,0,0,65,60.89a8.82,8.82,0,0,1,3.17-3.8,5.83,5.83,0,0,0,1.58-1.59A31.43,31.43,0,0,1,88.79,42.1Q96,40.44,103.32,39l1.66-.34a42,42,0,0,1,7.13-1.13,42.34,42.34,0,0,1,24.13,6.62,85.79,85.79,0,0,1,21.45,19.52,4.58,4.58,0,0,0,.75.56c.34.24.69.48,1,.75l.83.64A11.18,11.18,0,0,1,163,68.26c3.11,4.56,6.14,9.15,9.2,13.76l4.66,7a1.83,1.83,0,0,0,.35.43l9.87,5.36L193,98.05l.46.24a3.28,3.28,0,0,1,2,0,5.35,5.35,0,0,1,4.42-3.67c1-.14,2.07-.32,3.08-.51s2.09-.38,3.17-.54a6.21,6.21,0,0,1,6.86,2.92,13.83,13.83,0,0,1,2.12,6.92v4l2.68.8,1.88.54.72-.67c.51-.48,1-.94,1.55-1.4a5,5,0,0,1,3.76-1.39l1,.16a31.61,31.61,0,0,1,6.51,1.53,96.77,96.77,0,0,1,9.95,4.37c9.41,4.82,18,10.13,28.25,16.59a13.14,13.14,0,0,1,6.2,10.08,7.38,7.38,0,0,0,.27,1.56l.21,1.31v7.8a3.17,3.17,0,0,1-.35,1,5.5,5.5,0,0,0-.27.81A64.94,64.94,0,0,1,276.5,161l-.16,1.13c-.16,1.26-.32,2.49-.46,3.75-.24,2-.45,4.16-.83,6.25a66.34,66.34,0,0,1-4.29,16.08A28.83,28.83,0,0,1,261,200.29a72.07,72.07,0,0,1-13.4,7l-2.23,1c-3.83,1.69-7.77,3.21-11.58,4.69l-2,.75q-10.45,4.06-20.91,8l-10.19,3.89-14.5,5.55-10.86,4.15-4.29,1.61c-5.36,2.09-11.15,4.24-16.81,6.19-5.06,1.77-10.24,3.38-15.28,5l-3.88,1.21c-1.1.35-2.26.59-3.38.83l-1.4.3Zm-4.75-.29Zm1.64-5h2.52l1.18-.27c1-.21,2-.4,2.89-.7l3.89-1.12c5-1.56,10.14-3.17,15.09-4.91,5.58-2,11.21-4.07,16.68-6.14l4.29-1.63,10.72-4.16,14.53-5.55,10.16-3.86,20.91-8,1.93-.75c3.76-1.45,7.64-3,11.37-4.61l2.25-1a67.73,67.73,0,0,0,12.52-6.46A23.9,23.9,0,0,0,265.67,186a62.52,62.52,0,0,0,3.91-14.8c.35-1.93.57-3.86.78-5.89.13-1.29.29-2.68.48-3.89l.16-1.13a58.57,58.57,0,0,0,.83-9.62,7.5,7.5,0,0,1,.59-2.68v-7.29a12.79,12.79,0,0,0-.34-1.93,8.05,8.05,0,0,0-3.76-6.28c-10.13-6.38-18.76-11.6-27.8-16.32a90.72,90.72,0,0,0-9-4.37,28.17,28.17,0,0,0-5.36-1.24h-.38l-.24.19a17.19,17.19,0,0,0-1.28,1.16c-.43.4-1,.91-1.5,1.34a4.15,4.15,0,0,1-3.49.75l-2.68-.78c-1.07-.32-2.15-.64-3.22-.91a4.13,4.13,0,0,1-3.32-4.37v-4.64A8.67,8.67,0,0,0,208.65,99c-.16-.29-.3-.51-1.58-.34s-2,.32-2.95.5-2.23.41-3.33.57c0,0-.16,0-.24.43l-1.37,5.57-3.7-1.95a7.53,7.53,0,0,0-.8-.41,5.15,5.15,0,0,1-4-.72l-6-3.3L174.79,94a6.47,6.47,0,0,1-2.17-2.09L168,84.78c-3-4.59-6.09-9.17-9.17-13.7a7.08,7.08,0,0,0-1.53-1.31L156.26,69l-.61-.43A8.14,8.14,0,0,1,153.77,67a80.78,80.78,0,0,0-20.18-18.36,36.69,36.69,0,0,0-21.16-5.87,37.71,37.71,0,0,0-6.24,1l-1.72.35h0a46.45,46.45,0,0,1,16.46,8.31,97.46,97.46,0,0,1,22.95,25.38c.13.2.24.41.35.62l2.33,4.83-7-1-3.7-.53-2-.27c-2.07-.27-4-.51-6-.59-5.68-.21-10.72-.32-15.49-.27a118.52,118.52,0,0,0-24.75,3H87a5.54,5.54,0,0,1-6.43-1.21H80l-5,.78L76.4,79l1.42-4.32c1-3.13,2.07-6.38,3.22-9.54a42.85,42.85,0,0,1,10-16.27A36.28,36.28,0,0,1,94.42,46l-4.48,1A26,26,0,0,0,74,58.24a11.07,11.07,0,0,1-3,2.92,3.5,3.5,0,0,0-1.23,1.39A30,30,0,0,1,62,74.3a6.55,6.55,0,0,0-1.87,6.62A5.32,5.32,0,0,1,60,83.33c-.24.72-.51,1.42-.83,2.17l-.86,2.2-7.8,1.88-.75.18v2.69L45.49,93.6,40.27,95a55.23,55.23,0,0,0-18.15,8.31,16.09,16.09,0,0,0-6.92,8.5v4a24.35,24.35,0,0,1,.51,2.68,89.22,89.22,0,0,1,0,18.77,10.48,10.48,0,0,0,1.66,6.21,30.85,30.85,0,0,0,8,9.09c3.38,2.68,6.92,5.36,10.35,7.83l5.36,4a6.69,6.69,0,0,1,1.32,1.39l.27.32,1.12,1.34a23.2,23.2,0,0,0,2.25,2.5,93.59,93.59,0,0,1,10.57,11.5,16,16,0,0,0,8,6,9.16,9.16,0,0,1,3.22,2,9.29,9.29,0,0,0,.91.75l2.68,1.8,3.75,2.68a4.85,4.85,0,0,1,4.93.35l.3.16a5.38,5.38,0,0,1,3.22,4.42,20,20,0,0,0,1.85,5.37,44.25,44.25,0,0,0,7.39,10.5c4.94,5.55,9.07,10,13,14s7.29,7.07,10.94,10.48l1.85,1.71a13.45,13.45,0,0,0,7.42,3.33A3.52,3.52,0,0,1,126.91,245.28ZM74.39,195.23Zm150.66-84.82ZM195.62,103ZM82.6,77.33a4.32,4.32,0,0,1,1.74,1.31,1,1,0,0,0,.24.21,2.83,2.83,0,0,0,.7-.21,4.36,4.36,0,0,1,1.12-.27,124.59,124.59,0,0,1,25.95-3.08c4.83,0,10,0,15.74.27a50.3,50.3,0,0,1,6.46.64l2,.24a87.9,87.9,0,0,0-18.93-19.81,39.92,39.92,0,0,0-16.08-7.8l-.84-.19h-.53l-1.82,1.42a37.8,37.8,0,0,0-3.52,2.79A38.06,38.06,0,0,0,86,67.19c-1.13,3.06-2.12,6.11-3.17,9.36ZM65,159.36l-2.68-2.12c-5.9-4.45-12.26-8.55-18.39-12.52a247.43,247.43,0,0,1-24.13-16.91l-2.68-2.23,2.92-2,2.06-1.42c1.48-1,2.87-2,4.37-2.89a83.23,83.23,0,0,1,21.29-8.26,4.3,4.3,0,0,1,4,1.23l22.41-5.81,7.8-2h.19V102l4.53-1c1.82-.4,3.64-.83,5.36-1.18a135.52,135.52,0,0,1,28.63-2.49,122.4,122.4,0,0,1,33.91,4.91,4.38,4.38,0,0,1,3.17,3.32l.34,1.53a55.41,55.41,0,0,0,3.44,11l.51,1.13,1.15,2.68-2,1.21h0v.13h2.47a5.53,5.53,0,0,0,1.15,0q8-2.3,16.08-4.72l1.51-.43a6.4,6.4,0,0,1,1-.45,3.32,3.32,0,0,1,1.77,0l1.9.43.38,2.33v1.82l-1.66.75a136.78,136.78,0,0,1-19,6.44l-4.48,1.12h0l-2.47.54-2.09.46c-1.63.34-3.24.69-4.85.93l-2.14.33c-5.12.75-10.43,1.52-15.69,2.09a122.79,122.79,0,0,1-23.4.32c-6-.51-12-1.32-17.77-2.09l-3.38-.46a22.73,22.73,0,0,0-14.53,1.93c-.67.38-1.37.7-2.07,1a16,16,0,0,0-2.92,1.61,11.79,11.79,0,0,0-4,8.5c-.24,1.87-.32,3.78-.4,5.79v2.68a5.21,5.21,0,0,1-.35,1.87ZM25.92,126a249.51,249.51,0,0,0,20.83,14.36c4.91,3.17,10,6.44,14.86,9.9A42.27,42.27,0,0,1,62,145.1a17.15,17.15,0,0,1,6-12,19.65,19.65,0,0,1,3.91-2.23c.59-.27,1.18-.56,1.77-.86a27.55,27.55,0,0,1,17.75-2.54l3.38.45c5.73.78,11.69,1.56,17.53,2.07a117.35,117.35,0,0,0,22.41-.32c5.15-.54,10.4-1.32,15.47-2.07l2.14-.32c1.42-.22,2.68-.51,4.21-.81a12.31,12.31,0,0,0-.37-2.17,4.76,4.76,0,0,1,.64-4.23,61.24,61.24,0,0,1-3.65-11.77l-.26-1.13a118,118,0,0,0-32.17-4.63,127.13,127.13,0,0,0-27.53,2.38c-1.8.35-3.57.75-5.37,1.15l-.8.19a4.56,4.56,0,0,1-3.83,3.22l-7.81,2L53,117.35a5,5,0,0,1-4.8-1A76.64,76.64,0,0,0,29,123.81C28,124.45,27,125.23,25.92,126Z"/><path class="cls-1" d="M130.28,252h-4.92l-.72-.37a20.22,20.22,0,0,1-10.45-5L111.34,244c-3.38-3.15-6.88-6.41-10.18-9.86-3.83-4-8.38-8.89-13.16-14.16a51.39,51.39,0,0,1-8.56-12.12,26.37,26.37,0,0,1-2.26-6.44,5.73,5.73,0,0,1-5.6-1c-1-.71-2-1.4-3-2.07L65.08,196a16.44,16.44,0,0,1-1.49-1.19,4.51,4.51,0,0,0-.93-.71,22.56,22.56,0,0,1-11.14-8.25,87.63,87.63,0,0,0-9.63-10.67A28.22,28.22,0,0,1,39,171.89L37.49,170a.61.61,0,0,1-.07-.1L32.19,166c-1.3-1-2.6-2-3.89-2.94-2.2-1.64-4.47-3.34-6.66-5.15a37.18,37.18,0,0,1-9.59-11.09,16.87,16.87,0,0,1-2.88-10.1v-.1a83.07,83.07,0,0,0,0-17.27,17.88,17.88,0,0,0-.37-2l0-.36s-.06-.22-.09-.34-.11-.38-.15-.57l0-.29v-6.7l.88-.56a23.07,23.07,0,0,1,8.87-10.65,61.37,61.37,0,0,1,20.28-9.31l5.12-1.39c.77-2.49,2.57-3.4,5.48-4.11L53.55,82c.05-.13.1-.26.14-.39a13.09,13.09,0,0,1,4.13-12.29,23.37,23.37,0,0,0,5.75-8.93,10.29,10.29,0,0,1,3.74-4.55,4.2,4.2,0,0,0,1.17-1.17,32.85,32.85,0,0,1,20-14c4.84-1.11,9.74-2.17,14.58-3.15l1.65-.34A43.52,43.52,0,0,1,112,36a43.79,43.79,0,0,1,25,6.86,87,87,0,0,1,21.73,19.74,2.75,2.75,0,0,0,.44.32l.1.07c.36.24.72.49,1.08.77l.83.65a12.18,12.18,0,0,1,3,3c2.88,4.22,5.73,8.52,8.49,12.68l5.43,8.19,15.49,8.43a7.54,7.54,0,0,1,.83-.06,6.91,6.91,0,0,1,5.15-3.51c1-.13,2-.32,3-.5s2.08-.37,3.15-.53a7.78,7.78,0,0,1,8.45,3.64,15.3,15.3,0,0,1,2.32,7.62v3l2.66.78.1-.09c.52-.49,1.05-1,1.6-1.44a6.47,6.47,0,0,1,4.81-1.75l.16,0,1,.16a33.6,33.6,0,0,1,6.77,1.59,98.37,98.37,0,0,1,10.13,4.45c9.49,4.87,18.1,10.2,28.37,16.66A14.65,14.65,0,0,1,279,138v.12a3.84,3.84,0,0,0,.14.84l.09.41.25,1.62v7.8a3.35,3.35,0,0,1-.35,1.34,2.14,2.14,0,0,0-.1.22,4.51,4.51,0,0,0-.17.46,66.88,66.88,0,0,1-.9,10.48l-.19,1.36c-.15,1.15-.29,2.28-.42,3.43l-.13,1.13c-.19,1.71-.4,3.47-.71,5.22a68.15,68.15,0,0,1-4.38,16.39,30.51,30.51,0,0,1-10.27,12.75,75.07,75.07,0,0,1-13.73,7.17l-2.18.94c-3.91,1.73-8,3.31-11.63,4.72l-2,.75c-6.87,2.68-13.91,5.39-20.91,8l-39.84,15.2c-5.59,2.19-11.42,4.34-16.85,6.21-4.73,1.65-9.57,3.17-14.26,4.64l-4.95,1.54c-1.11.35-2.26.6-3.37.84Zm-4.18-3L130,249l1.54-.33c1-.22,2.11-.45,3.09-.76l5-1.54c4.67-1.46,9.49-3,14.18-4.61,5.39-1.87,11.18-4,16.76-6.18l4.31-1.61,35.53-13.59c7-2.65,14-5.36,20.9-8l2-.76c3.58-1.38,7.65-3,11.51-4.66l2.23-1A70.75,70.75,0,0,0,260.17,199a27.13,27.13,0,0,0,9.21-11.43,64.7,64.7,0,0,0,4.18-15.69c.31-1.73.51-3.44.7-5.1l.13-1.12c.13-1.16.27-2.31.42-3.48l.2-1.44a62.86,62.86,0,0,0,.87-10.22l.05-.35a6.65,6.65,0,0,1,.34-1c0-.07.08-.2.14-.32s.07-.14.09-.2v-7.59l-.26-1.47a6.61,6.61,0,0,1-.22-1.45,11.67,11.67,0,0,0-5.48-8.87c-10.22-6.43-18.77-11.73-28.16-16.54a95.67,95.67,0,0,0-9.78-4.3,31.38,31.38,0,0,0-6.18-1.44l-1-.16a3.55,3.55,0,0,0-2.55,1c-.59.51-1.08.94-1.57,1.41L220,110.47l-6.45-1.9v-5.16a12.24,12.24,0,0,0-1.89-6.12A4.75,4.75,0,0,0,206.4,95l-.13,0c-1.06.16-2.11.35-3.11.53s-2.09.38-3.16.52a3.86,3.86,0,0,0-3.19,2.65l-.46,1.41-1.42-.44a1.74,1.74,0,0,0-1.06,0l-.6.19-1-.54-16-8.77a3.13,3.13,0,0,1-.63-.77l-5.37-8.09c-2.76-4.15-5.6-8.45-8.46-12.63a9.48,9.48,0,0,0-2.3-2.3l-.89-.68c-.31-.25-.63-.47-.95-.69a6.92,6.92,0,0,1-.94-.7l-.17-.19a84,84,0,0,0-21.07-19.17A40.71,40.71,0,0,0,112.16,39a41.33,41.33,0,0,0-6.82,1.08l-1.71.36c-4.83,1-9.71,2-14.51,3.13A29.9,29.9,0,0,0,71,56.32a7.22,7.22,0,0,1-2,2,7.28,7.28,0,0,0-2.62,3.16,26.37,26.37,0,0,1-6.5,10,10.11,10.11,0,0,0-3.15,9.86l.11.44-.16.42c-.2.53-.39,1.05-.61,1.6l-.28.71L49.84,86c-2.87.71-3.2,1.24-3.46,2.68l-.17.91L44.68,90l-5.39,1.46a58.84,58.84,0,0,0-19.37,8.89A20.24,20.24,0,0,0,12,110.09l-.18.46-.31.2v4.87a1.33,1.33,0,0,1,.05.19,4.09,4.09,0,0,1,.21,1,21.19,21.19,0,0,1,.4,2.2,85.39,85.39,0,0,1,0,17.87,13.9,13.9,0,0,0,2.4,8.31l.06.1a34.25,34.25,0,0,0,8.89,10.28c2.17,1.79,4.41,3.46,6.57,5.08,1.31,1,2.62,2,3.91,3l5.54,4.16a4,4,0,0,1,.41.51L41.4,170A27.19,27.19,0,0,0,44,173a90.86,90.86,0,0,1,10,11,19.63,19.63,0,0,0,9.81,7.24l.24.1a7.23,7.23,0,0,1,1.65,1.21,13.64,13.64,0,0,0,1.16.92l3.45,2.35c1.05.69,2.12,1.41,3.16,2.17l.1.08a2.74,2.74,0,0,0,3.24.26l.36-.23h1l1.81,1,.09.76c0,.12,0,.24,0,.36a23.32,23.32,0,0,0,2.11,6.29A48.44,48.44,0,0,0,90.2,218c4.79,5.27,9.32,10.14,13.13,14.13,3.24,3.39,6.71,6.62,10,9.74l2.83,2.63a17.23,17.23,0,0,0,9.11,4.26l.26,0Zm3.5-2.25h-3l-.29-.13a2,2,0,0,0-.39-.13,14.79,14.79,0,0,1-8.2-3.69L114.63,240c-3.23-3-6.28-5.85-9.78-9.4-4-4.09-8.17-8.54-13-14a45.56,45.56,0,0,1-7.61-10.83,21.67,21.67,0,0,1-2-5.75l0-.15a3.86,3.86,0,0,0-2.32-3.18l-.55-.31a3.39,3.39,0,0,0-3.41-.24l-.81.41-4.48-3.21L68,191.54a13,13,0,0,1-1.09-.89,7.55,7.55,0,0,0-2.71-1.71,17.42,17.42,0,0,1-8.76-6.55,93.15,93.15,0,0,0-10.35-11.26,24.21,24.21,0,0,1-2.42-2.67l-1.44-1.73a5.49,5.49,0,0,0-1-1.08l-5.33-4c-3.35-2.41-6.94-5.13-10.38-7.85a32.18,32.18,0,0,1-8.4-9.51,12,12,0,0,1-1.87-7.05,87.26,87.26,0,0,0,.46-11.75l0,0h0q-.09-3.39-.45-6.75a25.09,25.09,0,0,0-.47-2.48l-.05-.36v-4.28l.09-.24a17.6,17.6,0,0,1,7.51-9.26,56.73,56.73,0,0,1,18.6-8.51l8.33-2.26V88.59l1.89-.47,7.05-1.69L57.74,85c.33-.77.58-1.43.81-2.1a3.91,3.91,0,0,0,.14-1.64,8,8,0,0,1,2.33-8A28.59,28.59,0,0,0,68.43,62l.06-.15a5,5,0,0,1,1.76-2,9.48,9.48,0,0,0,2.53-2.52A27.31,27.31,0,0,1,89.6,45.55l11.28-2.5-.39.28,5.4-1.09a39,39,0,0,1,6.43-1,38.08,38.08,0,0,1,22.08,6.11A81.73,81.73,0,0,1,155,66a6.69,6.69,0,0,0,1.48,1.22l.69.48,1.06.81A8.48,8.48,0,0,1,160,70.09l.12.15c2.74,4,5.66,8.39,9.18,13.71l4.62,7.14a5.07,5.07,0,0,0,1.67,1.62l16,8.7a3.66,3.66,0,0,0,2.81.51l.48-.11.44.19q.49.23,1,.48l2,1,.9-3.71a1.78,1.78,0,0,1,1.5-1.56c.95-.14,2.13-.34,3.25-.55l.64-.12c.7-.14,1.36-.27,2.4-.4s2.33-.18,3.05,1a10.14,10.14,0,0,1,1.64,5v4.82a2.63,2.63,0,0,0,2.12,2.78c1.18.3,2.29.63,3.36,1l2.67.78a2.62,2.62,0,0,0,2.15-.5c.44-.37,1-.86,1.39-1.25l.25-.24c.36-.33.72-.68,1.15-1l.64-.5,1.08,0a28.76,28.76,0,0,1,5.65,1.3l.11,0a94.71,94.71,0,0,1,9.12,4.44c9.11,4.75,17.74,10,27.87,16.36a9.58,9.58,0,0,1,4.45,7.36c0,.18.07.35.11.52a6.33,6.33,0,0,1,.24,1.6v7.6l-.12.29a5.69,5.69,0,0,0-.47,2.12,60.32,60.32,0,0,1-.85,9.83l-.15,1.09c-.16,1-.31,2.22-.48,3.83-.21,2-.43,4-.79,6a63.83,63.83,0,0,1-4,15.09,25.27,25.27,0,0,1-8.33,10.7,68.49,68.49,0,0,1-12.86,6.65l-2.2,1c-3.76,1.65-7.71,3.21-11.43,4.64l-22.84,8.79-24.69,9.41-15,5.79c-6,2.25-11.32,4.27-16.71,6.16-5,1.77-10.41,3.44-15.14,4.92l-3.92,1.13a24.32,24.32,0,0,1-2.38.59Zm-2.4-3h2.06l1.66-.37c.75-.16,1.46-.32,2.14-.53l3.91-1.13c4.68-1.46,10-3.13,15-4.88,5.35-1.88,10.7-3.89,16.64-6.13l4.28-1.63L183.63,225l47.53-18.2c3.68-1.42,7.6-3,11.31-4.58l2.25-1a65.91,65.91,0,0,0,12.3-6.34,22.21,22.21,0,0,0,7.26-9.37A61.33,61.33,0,0,0,268.1,171c.35-1.94.56-3.87.77-5.85.17-1.66.33-2.92.49-4l.16-1.11a58.74,58.74,0,0,0,.81-9.42,9,9,0,0,1,.59-3v-7a4.23,4.23,0,0,0-.15-.89,7.6,7.6,0,0,1-.17-.8l0-.14a6.58,6.58,0,0,0-3.05-5.11c-10.08-6.34-18.65-11.53-27.7-16.26a94.4,94.4,0,0,0-8.82-4.3,26.33,26.33,0,0,0-4.72-1.11c-.24.2-.48.43-.73.66l-.26.25c-.44.42-1,1-1.56,1.39a5.61,5.61,0,0,1-4.8,1.06l-2.75-.79c-1.05-.32-2.12-.64-3.16-.9a5.59,5.59,0,0,1-4.46-5.88v-4.58a7,7,0,0,0-1-3.21l-.32,0c-.93.12-1.51.24-2.19.37l-.66.13c-.85.16-1.73.31-2.53.44L200.18,108l-5.4-2.86-.3-.17a6.73,6.73,0,0,1-4.54-1l-15.87-8.63a8,8,0,0,1-2.71-2.6l-4.61-7.13c-3.48-5.26-6.38-9.59-9.1-13.59a5.64,5.64,0,0,0-1.15-1l-.1-.07-1.61-1.2a9.13,9.13,0,0,1-2.15-1.82,79.14,79.14,0,0,0-19.86-18.09,35,35,0,0,0-20.3-5.63c-.72.05-1.45.13-2.19.23a47.81,47.81,0,0,1,11.57,6.74A98.54,98.54,0,0,1,145.15,77a7.72,7.72,0,0,1,.43.75l3.55,7.37-15.5-2.19c-2.08-.27-4-.5-5.87-.58-6.12-.23-11-.32-15.42-.27A117.45,117.45,0,0,0,87.92,85l-.34,0h-.24A7,7,0,0,1,80,83.83L72.83,85l3.73-11.24c1-3,2-6.07,3.07-9.1a44.74,44.74,0,0,1,9.43-15.83A24.41,24.41,0,0,0,75.28,59.05a12.67,12.67,0,0,1-3.37,3.36,2,2,0,0,0-.7.75A31.47,31.47,0,0,1,63.05,75.4a5,5,0,0,0-1.45,5.11l0,.18a6.88,6.88,0,0,1-.24,3.09c-.26.78-.54,1.51-.88,2.31L59.39,89l-8.16,2v2.65L40.66,96.47A53.4,53.4,0,0,0,23,104.56l-.09.06a14.62,14.62,0,0,0-6.19,7.47v3.58a27.06,27.06,0,0,1,.5,2.66c.18,1.72.31,3.43.4,5.15L21.29,121c1.52-1,2.92-2,4.45-3a84.67,84.67,0,0,1,21.72-8.43,5.79,5.79,0,0,1,4.7,1l28.51-7.41v-2.38l7.46-1.67c1.24-.28,2.46-.56,3.63-.8a137.38,137.38,0,0,1,29-2.52,123.76,123.76,0,0,1,34.3,5,5.83,5.83,0,0,1,4.21,4.45l.35,1.51a54.11,54.11,0,0,0,3.34,10.78l.5,1.1,1.34,3.11c4.74-1.35,9.9-2.86,15.76-4.62l1.37-.39a6.52,6.52,0,0,1,1.15-.49,4.9,4.9,0,0,1,2.63,0l2.83.64.55,3.57v2.79l-2.55,1.15a138.94,138.94,0,0,1-19.22,6.52l-4.48,1.13-4.88,1.06c-1.53.32-3.11.66-4.68.9l-2.14.32c-5.15.75-10.46,1.53-15.75,2.1a124.07,124.07,0,0,1-23.68.32c-6-.51-12-1.31-17.74-2.08l-3.49-.47A21.32,21.32,0,0,0,76.78,136c-.66.36-1.4.7-2.11,1a14.35,14.35,0,0,0-2.62,1.43,10.29,10.29,0,0,0-3.4,7.36V146c-.24,1.86-.31,3.79-.39,5.66v2.62a6.81,6.81,0,0,1-.44,2.41l-2.16,5.11-4.22-3.34c-5.79-4.37-12.07-8.43-18.15-12.35l-.13-.09a250.52,250.52,0,0,1-24.24-17l-1.2-1a90.6,90.6,0,0,1-.51,9.47,9,9,0,0,0,1.43,5.25,29.38,29.38,0,0,0,7.69,8.71c3.42,2.71,7,5.41,10.32,7.8L42,163.28a8.46,8.46,0,0,1,1.6,1.68L45,166.57a21.28,21.28,0,0,0,2.14,2.37,94.77,94.77,0,0,1,10.71,11.67,14.58,14.58,0,0,0,7.34,5.5A10.46,10.46,0,0,1,69,188.47a8.45,8.45,0,0,0,.76.62l2.62,1.75,3.12,2.23a6.37,6.37,0,0,1,5.52.77l.17.09a6.88,6.88,0,0,1,4,5.56,18.93,18.93,0,0,0,1.7,4.89A42.75,42.75,0,0,0,94,214.54c4.85,5.46,9,9.87,13,13.92,3.46,3.51,6.48,6.33,9.69,9.32l3,2.83a11.74,11.74,0,0,0,6.57,2.94h.1A4.52,4.52,0,0,1,127.2,243.78ZM19.66,125.71l1.14.94a245.35,245.35,0,0,0,24,16.79l.16.11c6.12,3.95,12.45,8,18.35,12.49l1.16.92.6-1.43a3.62,3.62,0,0,0,.23-1.3v-2.67c.08-2,.16-3.94.41-5.91a13.26,13.26,0,0,1,4.47-9.51l.13-.1a17.19,17.19,0,0,1,3.2-1.76c.65-.3,1.3-.6,1.92-.95a24.36,24.36,0,0,1,15.55-2.09l3.39.45c5.76.77,11.72,1.57,17.6,2.07a121.4,121.4,0,0,0,23.11-.31c5.23-.57,10.52-1.34,15.63-2.09l2.14-.32c1.48-.22,2.94-.53,4.5-.87l4.81-1,4.43-1.12a135.36,135.36,0,0,0,18.76-6.36l.75-.34v-.73l-.2-1.21-.91-.21a2,2,0,0,0-1,0,4.87,4.87,0,0,0-.72.33l-.31.13-1.5.43c-6,1.79-11.25,3.34-16.09,4.71l-.27.05a6.87,6.87,0,0,1-1.36,0h-3.9v-2.47l1.57-1-1.14-2.59a56.31,56.31,0,0,1-3.54-11.37l-.34-1.48a2.85,2.85,0,0,0-2.08-2.21,121,121,0,0,0-33.53-4.86,134.48,134.48,0,0,0-28.34,2.47c-1.14.23-2.34.5-3.56.77l-5.12,1.15v2.69h-1.5l-30.88,8-.61-.64a2.76,2.76,0,0,0-2.58-.8,81.85,81.85,0,0,0-20.86,8.1c-1.4.85-2.76,1.79-4.2,2.79ZM202,100.44h0ZM79.91,80.81h1.32l.45.47a4,4,0,0,0,4.69.89l.31-.15h.73a119.92,119.92,0,0,1,24.89-3c4.45-.05,9.4,0,15.58.27,2,.08,4,.32,6.14.6l10,1.41L142.88,79c-.08-.15-.16-.3-.26-.45a95.7,95.7,0,0,0-22.61-25,44.79,44.79,0,0,0-15.94-8l-4.73-1.3-4,3a36.29,36.29,0,0,0-3.22,2.73,41.65,41.65,0,0,0-9.64,15.67c-1.09,3-2.09,6.07-3,9l-2.17,6.59Zm-16.8,72.31-2.37-1.68c-4.91-3.48-10.16-6.87-14.8-9.85l-2-1.3A224.69,224.69,0,0,1,25,127.13l-1.58-1.26L26.05,124c.74-.52,1.47-1,2.17-1.49l.09,0a78.15,78.15,0,0,1,19.57-7.63l.76-.18.58.52a3.54,3.54,0,0,0,3.36.71L83,108a3.05,3.05,0,0,0,2.57-2.16l.25-.83,2.19-.51c1.59-.35,3.24-.72,4.88-1A128.82,128.82,0,0,1,120.75,101a119.24,119.24,0,0,1,32.55,4.69l.84.24.47,2a60.46,60.46,0,0,0,3.57,11.53l.33.77-.48.68a3.31,3.31,0,0,0-.45,2.91l0,.19c0,.2.09.4.13.6a7.67,7.67,0,0,1,.27,1.84v1.24l-1.21.24-1.41.28c-1,.2-1.87.38-2.86.53l-2.15.32c-5.09.76-10.35,1.54-15.53,2.08a118.63,118.63,0,0,1-22.69.32c-6-.52-12-1.31-17.61-2.07l-3.38-.46a26.28,26.28,0,0,0-16.86,2.4c-.62.31-1.23.61-1.84.89a18.65,18.65,0,0,0-3.6,2,15.74,15.74,0,0,0-5.41,10.93,40.48,40.48,0,0,0-.37,5ZM28.44,126c5.55,4.28,11.42,8.07,17.12,11.74l2,1.29c4,2.56,8.37,5.41,12.66,8.36.06-.76.15-1.59.26-2.51A18.73,18.73,0,0,1,67,132l.09-.07a21.68,21.68,0,0,1,4.21-2.4c.55-.24,1.12-.53,1.69-.82A29.21,29.21,0,0,1,91.67,126l3.3.45c5.59.75,11.55,1.54,17.46,2a116,116,0,0,0,22.12-.32c5.13-.53,10.35-1.3,15.41-2l2.14-.32c.92-.14,1.79-.32,2.71-.51h0c-.05-.21-.1-.41-.14-.62a6.34,6.34,0,0,1,.42-4.72,63.46,63.46,0,0,1-3.44-11.35l-.05-.22A116.23,116.23,0,0,0,120.71,104a125.51,125.51,0,0,0-27.23,2.35c-1.61.31-3.16.66-4.81,1l-.54.12a6,6,0,0,1-4.66,3.41L53.41,118.8a6.46,6.46,0,0,1-5.52-.84,74.53,74.53,0,0,0-18.08,7.14C29.36,125.39,28.91,125.7,28.44,126ZM84.27,80.42l-.48-.29a2.34,2.34,0,0,1-.62-.55A3,3,0,0,0,82,78.71l-1.29-.55.73-2.1c1.12-3.49,2.07-6.41,3.17-9.39a39.66,39.66,0,0,1,9.1-14.87l.07-.07a38.2,38.2,0,0,1,3.66-2.9l2.16-1.69,1.39,0,.83.19a41.61,41.61,0,0,1,16.69,8.09,89.39,89.39,0,0,1,19.22,20.13l1.91,2.75-5.28-.65-1.3-.18a37.92,37.92,0,0,0-5-.45c-5.8-.27-10.85-.27-15.74-.27a123.43,123.43,0,0,0-25.61,3l-.17,0a2.91,2.91,0,0,0-.72.17,4.19,4.19,0,0,1-1,.3Zm1.24-2.72Zm-1.1-1a4.72,4.72,0,0,1,.59.5,5.79,5.79,0,0,1,1.15-.26,126.79,126.79,0,0,1,26.18-3.1c5,0,10,0,15.83.27h0a37.31,37.31,0,0,1,5.08.45,86.56,86.56,0,0,0-16.59-16.69,38.68,38.68,0,0,0-15.51-7.53l-.55-.12-1.38,1.08a35.54,35.54,0,0,0-3.4,2.68,36.69,36.69,0,0,0-8.38,13.74C86.4,70.53,85.48,73.32,84.41,76.65Z"/></svg>